# xmcd
#
# Track frame offsets: 
#        150
#        10300
#        20847
#        30522
#        44395
#        58955
#        71227
#        80945
#        94305
#        103727
#        113715
#        126465
#        135075
#        144602
#        155765
#        165035
#        175080
#        189310
#        201735
#        211187
#        221540
#        231520
#        241087
#        253087
#        262335
#        271670
#        282035
#        288315
#        300140
#        309050
#        318432
#
# Disc length: 4389 seconds
#
# Revision: 2
# Processed by: cddbd v1.5PL3 Copyright (c) Steve Scherf et al.
# Submitted via: ExactAudioCopy v0.95a4
#
DISCID=c711231f
DTITLE=Ventures - Super Ventures
DYEAR=1996
DGENRE=
TTITLE0=Loño Motion
TTITLE1=Pipeline
TTITLE2=Hallelujah
TTITLE3=Vibrations.Single Version
TTITLE4=Harlem Nocturne
TTITLE5=Blue Chateau
TTITLE6=Hokkaido Skies
TTITLE7=The House of the Rising Sun
TTITLE8=Love Potion Number Nine
TTITLE9=Snoopy vs.The Red Baron
TTITLE10=Caravan
TTITLE11=Limbo Êock
TTITLE12=Ginza Lights
TTITLE13=Mod Óast
TTITLE14=Night Stick
TTITLE15=Fugitive
TTITLE16=Apache
TTITLE17=Honky Tonk
TTITLE18=Sleep Walk
TTITLE19=Slow Sundown
TTITLE20=Road to Somewhere (Gin-Iro-No-Michi)
TTITLE21=Endless Dream
TTITLE22=Blue Tango
TTITLE23=Rap City
TTITLE24=Diamond Head
TTITLE25=Raunchy
TTITLE26=Detour
TTITLE27=She's Not There
TTITLE28=Bombay Duck
TTITLE29=Walk,Don't Run
TTITLE30=Walk, Don't Run`64
EXTD=
EXTT0=
EXTT1=
EXTT2=
EXTT3=
EXTT4=
EXTT5=
EXTT6=
EXTT7=
EXTT8=
EXTT9=
EXTT10=
EXTT11=
EXTT12=
EXTT13=
EXTT14=
EXTT15=
EXTT16=
EXTT17=
EXTT18=
EXTT19=
EXTT20=
EXTT21=
EXTT22=
EXTT23=
EXTT24=
EXTT25=
EXTT26=
EXTT27=
EXTT28=
EXTT29=
EXTT30=
PLAYORDER=
